
<svg>
    <!-- Generator: Sketch 47.1 (45422) - http://www.bohemiancoding.com/sketch -->
    <desc>Created with Sketch.</desc>
    <defs></defs>
    <g id="Symbols" stroke="none" stroke-width="1" fill="none" fill-rule="evenodd">
        <g id="about/mobile-card" transform="translate(-19.000000, -21.000000)" fill="#00B2CB">
            <g id="Icon/Benefit/Puzzle" transform="translate(14.000000, 18.000000)">
                <g id="022-puzzle" transform="translate(5.892857, 3.928571)">
                    <path d="M42.370255,0 L34.0003405,0 C33.5341824,0 33.1563099,0.377871791 33.1563099,0.844029018 L33.1563099,2.07555176 C33.1563099,2.35754185 33.2970942,2.62087891 33.5315659,2.77744629 C34.3085805,3.29627093 34.7724598,4.16249791 34.7724598,5.09464355 C34.7724598,6.62967913 33.523632,7.87850446 31.9886779,7.87850446 C30.4536393,7.87850446 29.2048959,6.62967913 29.2048959,5.09464355 C29.2048959,4.20242048 29.6377992,3.35763184 30.3629904,2.83492467 C30.5929887,2.66915737 30.7197621,2.40320382 30.7130943,2.12982282 L30.7130943,0.844029018 C30.7130943,0.377871791 30.3351374,0 29.8690636,0 L21.6071007,0 L0.844030666,0 C0.377956932,0 0,0.377871791 0,0.844029018 L0,9.10606027 C0,9.57221749 0.377872529,9.95008929 0.844030666,9.95008929 L2.12442519,9.95008929 C2.40017001,9.95793876 2.66781213,9.83150321 2.83467699,9.60007045 C3.3577228,8.87488072 4.20259749,8.44189383 5.09473791,8.44189383 C6.62969208,8.44189383 7.87851985,9.69063477 7.87851985,11.2255859 C7.87851985,12.7606215 6.62969208,14.0094468 5.09473791,14.0094468 C4.16250604,14.0094468 3.29619296,13.5454841 2.77736731,12.768471 C2.62071522,12.5339153 2.35737765,12.3931313 2.07547141,12.3931313 L0.844030666,12.3931313 C0.377872529,12.3931313 0,12.7710031 0,13.2371603 L0,21.6071429 C0,22.0733001 0.377872529,22.4511719 0.844030666,22.4511719 L8.26196298,22.4511719 L8.26196298,22.5095787 C7.31048721,23.3535233 6.75376459,24.5750865 6.75376459,25.8578418 C6.75376459,28.3236726 8.75985667,30.3297607 11.2256923,30.3297607 C13.6913591,30.3297607 15.6973667,28.3236726 15.6973667,25.8578418 C15.6973667,24.5356703 15.1168424,23.2962981 14.1224899,22.4511719 L20.76307,22.4511719 L20.76307,29.9771254 C20.76307,30.4432826 21.1408581,30.8211544 21.6071007,30.8211544 L22.8386258,30.8211544 C23.1206164,30.8211544 23.383954,30.6803704 23.5405217,30.4458147 C24.0593474,29.6688016 24.925576,29.2049233 25.8577235,29.2049233 C27.3928465,29.2049233 28.6415898,30.4536642 28.6415898,31.9886154 C28.6415898,33.5235665 27.3927621,34.7723075 25.8577235,34.7723075 C24.9654987,34.7723075 24.1207084,34.339405 23.5980002,33.6142153 C23.4313041,33.3830357 23.163662,33.2550809 22.8885924,33.2642808 L21.6071007,33.2642808 C21.1408581,33.2642808 20.76307,33.6421526 20.76307,34.1083098 L20.76307,42.3702567 C20.76307,42.8364139 21.1408581,43.2142857 21.6071007,43.2142857 L42.370255,43.2142857 C42.8363288,43.2142857 43.2142857,42.8364139 43.2142857,42.3702567 L43.2142857,34.1083943 C43.2142857,33.642237 42.8363288,33.2643652 42.370255,33.2643652 L41.0958531,33.2643652 C40.8178294,33.2532241 40.5475708,33.3810944 40.3795243,33.6142153 C39.8565629,34.3394894 39.0116882,34.7724763 38.1195478,34.7724763 C36.5845936,34.7724763 35.3358503,33.5237354 35.3358503,31.9887842 C35.3358503,30.453833 36.584678,29.2050921 38.1195478,29.2050921 C39.0517797,29.2050921 39.9180928,29.6689704 40.4369184,30.4459835 C40.5934861,30.6805392 40.8569081,30.8213232 41.1388143,30.8213232 L42.370255,30.8213232 C42.8363288,30.8213232 43.2142857,30.4434515 43.2142857,29.9772942 L43.2142857,21.6071429 L43.2142857,0.844029018 C43.2142857,0.377871791 42.8364132,0 42.370255,0 Z M20.76307,20.7631982 L13.2371861,20.7631982 C12.771028,20.7631982 12.3931555,21.14107 12.3931555,21.6072273 L12.3931555,22.83875 C12.3932399,23.1207401 12.5340242,23.3840771 12.7685803,23.5406445 C13.5455106,24.0593848 14.0093898,24.9256961 14.0093898,25.8578418 C14.0093898,27.3928774 12.7606464,28.6417027 11.2257767,28.6417027 C9.69065369,28.6417027 8.44191032,27.3928774 8.44191032,25.8578418 C8.44191032,24.9656187 8.87481365,24.1208301 9.6000048,23.5980385 C9.83000316,23.4322712 9.95677656,23.1663177 9.95010872,22.8929367 L9.95010872,21.6071429 C9.95010872,21.1409856 9.57215179,20.7631138 9.10607805,20.7631138 L1.68806133,20.7631138 L1.68806133,14.1225467 C2.53327364,15.1169817 3.77247947,15.6974205 5.09473791,15.6974205 C7.5604891,15.6974205 9.56658118,13.6913323 9.56658118,11.2255015 C9.56658118,8.75975516 7.5604891,6.7537514 5.09473791,6.7537514 C3.8119801,6.7537514 2.59049892,7.31047294 1.74629945,8.26194685 L1.68806133,8.26194685 L1.68806133,5.14697335 L4.98552034,5.14697335 C5.45167848,5.14697335 5.82955101,4.76910156 5.82955101,4.30294434 C5.82955101,3.83678711 5.45159407,3.45891532 4.98552034,3.45891532 L1.68806133,3.45891532 L1.68806133,1.68805804 L20.76307,1.68805804 L20.76307,8.26203125 L20.7046631,8.26203125 C19.860548,7.31055734 18.6389824,6.7538358 17.356309,6.7538358 C14.8905578,6.7538358 12.8845501,8.75983956 12.8845501,11.2255859 C12.8845501,13.6914167 14.8906422,15.6975049 17.356309,15.6975049 C18.6785675,15.6975049 19.9178577,15.1170661 20.7629856,14.1226311 L20.7629856,20.7631982 L20.76307,20.7631982 Z M41.5262244,29.091739 C40.6810121,28.097304 39.4418062,27.5169496 38.1195478,27.5169496 C35.6537966,27.5169496 33.6477889,29.5230378 33.6477889,31.9886998 C33.6477889,34.4544461 35.653881,36.4604499 38.1195478,36.4604499 C39.4021368,36.4604499 40.623618,35.9038128 41.4677331,34.9524233 L41.5262244,34.9524233 L41.5262244,37.8732701 L38.2287654,37.8732701 C37.7626072,37.8732701 37.3847347,38.2511419 37.3847347,38.7172991 C37.3847347,39.1834563 37.7626072,39.5613281 38.2287654,39.5613281 L41.5262244,39.5613281 L41.5262244,41.5262277 L22.4511313,41.5262277 L22.4511313,34.9524233 L22.5096226,34.9524233 C23.3535689,35.9038128 24.5750501,36.4604499 25.8577235,36.4604499 C28.3235591,36.4604499 30.3296512,34.4544461 30.3296512,31.9886998 C30.3296512,29.5229534 28.3234747,27.5169496 25.8577235,27.5169496 C24.5356339,27.5169496 23.2962592,28.0974728 22.4511313,29.0919078 L22.4511313,22.4511719 L29.869148,22.4511719 C30.3352218,22.4511719 30.7131787,22.0733001 30.7131787,21.6071429 L30.7131787,20.326582 C30.7215346,20.0513442 30.594508,19.7831117 30.3630748,19.6162472 C29.6378836,19.0934556 29.2049803,18.248667 29.2049803,17.3564439 C29.2049803,15.8214927 30.4537237,14.5726674 31.9887623,14.5726674 C33.5237164,14.5726674 34.7725442,15.8214083 34.7725442,17.3564439 C34.7725442,18.288674 34.3086649,19.1549854 33.5317347,19.67381 C33.2971786,19.8303774 33.1563943,20.0937988 33.1563943,20.3757045 L33.1563943,21.6071429 C33.1563943,22.0733001 33.5342668,22.4511719 34.0004249,22.4511719 L41.5262244,22.4511719 L41.5262244,29.091739 L41.5262244,29.091739 Z M41.5262244,20.7631982 L34.8857287,20.7631982 C35.8800812,19.918072 36.4605211,18.6787842 36.4605211,17.3565283 C36.4605211,14.8907819 34.454429,12.8846938 31.9886779,12.8846938 C29.5229267,12.8846938 27.5168346,14.8907819 27.5168346,17.3565283 C27.5168346,18.6392836 28.0736416,19.8607624 29.025033,20.7047914 L29.025033,20.7631982 L22.4511313,20.7631982 L22.4511313,13.2371603 C22.4511313,12.7710031 22.0731744,12.3931313 21.6071007,12.3931313 L20.3756599,12.3931313 C20.0935849,12.3931313 19.8302473,12.5339997 19.6736796,12.768471 C19.1549384,13.5454841 18.2886253,14.0094468 17.3563934,14.0094468 C15.8214392,14.0094468 14.5726959,12.7606215 14.5726959,11.2255859 C14.5726959,9.69063477 15.8214392,8.44189383 17.3563934,8.44189383 C18.2485338,8.44189383 19.0934085,8.87488072 19.6163699,9.60007045 C19.782222,9.83006836 20.0492733,9.95793876 20.3213887,9.95008929 L21.6071007,9.95008929 C22.0731744,9.95008929 22.4511313,9.57221749 22.4511313,9.10606027 L22.4511313,1.68805804 L29.0251174,1.68805804 L29.0251174,1.74646484 C28.0736416,2.59040946 27.516919,3.81188825 27.516919,5.09464355 C27.516919,7.56047433 29.5230111,9.5665625 31.9887623,9.5665625 C34.4545978,9.5665625 36.4606055,7.56047433 36.4606055,5.09464355 C36.4606055,3.7724721 35.8799968,2.53318429 34.8856443,1.68797363 L38.1331367,1.68797363 L38.1331367,4.98559501 C38.1331367,5.45175223 38.5110092,5.82962402 38.9771674,5.82962402 C39.4433255,5.82962402 39.821198,5.45175223 39.821198,4.98559501 L39.821198,1.68805804 L41.5262244,1.68805804 L41.5262244,20.7631982 L41.5262244,20.7631982 Z" id="Shape" fill-rule="nonzero"></path>
                    <path d="M6.90734933,3.92857143 L6.81361607,3.92857143 C6.30508092,3.92857143 5.89285714,4.3407952 5.89285714,4.84933036 C5.89285714,5.35786551 6.30508092,5.77008929 6.81361607,5.77008929 L6.90734933,5.77008929 C7.41579241,5.77008929 7.82810826,5.35786551 7.82810826,4.84933036 C7.82810826,4.3407952 7.41588449,3.92857143 6.90734933,3.92857143 Z" id="Shape" fill-rule="nonzero"></path>
                    <path d="M38.2421875,5.89285714 C37.7336523,5.89285714 37.3214286,6.30508092 37.3214286,6.81361607 L37.3214286,6.90725725 C37.3214286,7.41579241 37.7335603,7.82801618 38.2421875,7.82801618 C38.7507227,7.82801618 39.1629464,7.41579241 39.1629464,6.90725725 L39.1629464,6.81361607 C39.1629464,6.30508092 38.7507227,5.89285714 38.2421875,5.89285714 Z" id="Shape" fill-rule="nonzero"></path>
                    <path d="M36.371543,37.3214286 L36.2779018,37.3214286 C35.7693666,37.3214286 35.3571429,37.7336523 35.3571429,38.2421875 C35.3571429,38.7507227 35.7693666,39.1629464 36.2779018,39.1629464 L36.371543,39.1629464 C36.8800781,39.1629464 37.2923019,38.7507227 37.2923019,38.2421875 C37.2923019,37.7336523 36.8801702,37.3214286 36.371543,37.3214286 Z" id="Shape" fill-rule="nonzero"></path>
                </g>
            </g>
        </g>
    </g>
</svg>
