<?xml version="1.0" encoding="utf-8"?>
<!-- Generator: Adobe Illustrator 21.1.0, SVG Export Plug-In . SVG Version: 6.00 Build 0)  -->
<svg version="1.1" id="Layer_1" xmlns="http://www.w3.org/2000/svg" xmlns:xlink="http://www.w3.org/1999/xlink" x="0px" y="0px"
	 viewBox="0 0 115 40" style="enable-background:new 0 0 115 40;" xml:space="preserve">
<style type="text/css">
	.st0{fill:#1BB8CE;}
	.st1{fill:#D7ECEF;}
	.st2{fill:#03032D;}
</style>
<title>ew-footer-middle</title>
<path class="st0" d="M115.2,25.9H89.7c-5.2,0-10.3-1-15.1-3C66.1,19.6,25.7,2.9,25.7,2.9c-4.8-2-9.9-3-15-3H0v14.2h25.5
	c5.2,0,10.3,1,15.1,3c8.5,3.3,48.9,19.9,48.9,19.9c4.8,2,9.9,3,15,3h10.7L115.2,25.9z"/>
<path class="st1" d="M74.6,22.8c4.8,2,9.9,3,15.1,3h25.5V0H10.7C15.9,0,21,1,25.7,3C25.7,3,66.2,19.5,74.6,22.8z"/>
<path class="st2" d="M40.5,17.2c-4.8-2-9.9-3-15.1-3H0V40h104.5c-5.1,0-10.2-1-15-2.9C89.5,37.1,49,20.5,40.5,17.2z"/>
</svg>
