<svg id="Layer_1" data-name="Layer 1" xmlns="http://www.w3.org/2000/svg" width="600.75" height="40.3" viewBox="0 0 600.75 40.3"><title>ew-footer-full-v3</title><path d="M600.35.29H362.66V.12H256.1a39,39,0,0,1,15.3,3.06S312.7,20,321.26,23.37a39.89,39.89,0,0,0,15.4,3.06H600.35Z" transform="translate(0.41 0)" style="fill:#d7ecef"/><path d="M287,17.35a39.26,39.26,0,0,0-15.16-3H246.31V40.24H351.19a41,41,0,0,1-15.05-2.91S295.49,20.66,287,17.35Z" transform="translate(0.41 0)" style="fill:#03032d"/><rect x="0.32" y="14.32" width="247.03" height="25.97" style="fill:#03032d"/><path d="M361.54,26.14H335.85a39.5,39.5,0,0,1-15.21-3C312.08,19.8,271.4,3,271.4,3a39.37,39.37,0,0,0-15.11-3h-9.54V0H-.41V14.21H245.51v.07h25.68a39.49,39.49,0,0,1,15.21,3c8.56,3.31,49.25,20,49.25,20a39.37,39.37,0,0,0,15.11,3H600.27V26.14Z" transform="translate(0.41 0)" style="fill:#1bb8ce"/></svg>