<?xml version="1.0" encoding="UTF-8"?>
<svg width="156px" height="24px" viewBox="0 0 156 24" version="1.1" xmlns="http://www.w3.org/2000/svg" xmlns:xlink="http://www.w3.org/1999/xlink">
    <!-- Generator: Sketch 47.1 (45422) - http://www.bohemiancoding.com/sketch -->
    <title>eventwards</title>
    <desc>Created with Sketch.</desc>
    <defs></defs>
    <g id="Symbols" stroke="none" stroke-width="1" fill="none" fill-rule="evenodd">
        <g id="header" transform="translate(-21.000000, -15.000000)" fill="#00B2CB">
            <path d="M35.09,30.62 C35.09,31.04 35.0699998,31.3499998 35.03,31.55 L24.41,31.55 C24.71,34.13 26.06,35.42 28.46,35.42 C29.3,35.42 29.9999998,35.2499998 30.56,34.91 C31.1200002,34.5700002 31.7,33.9299998 32.3,32.99 L34.61,34.61 C33.3100002,37.07 31.22,38.3 28.34,38.3 C26.12,38.3 24.365,37.58 23.075,36.14 C21.785,34.7 21.14,32.8300002 21.14,30.53 C21.14,28.2299998 21.7900002,26.3500002 23.09,24.89 C24.3899998,23.4299998 26.1400002,22.7 28.34,22.7 C30.4600002,22.7 32.1149998,23.4250002 33.305,24.875 C34.4950002,26.3249998 35.09,28.2400002 35.09,30.62 Z M28.4,25.55 C26.2199998,25.55 24.92,26.6999998 24.5,29 L32.09,29 C31.7699998,26.6999998 30.5399998,25.55 28.4,25.55 Z M48.02,23 L44,34.04 L39.95,23 L36.38,23 L42.38,38 L45.56,38 L51.59,23 L48.02,23 Z M66.83,30.62 C66.83,31.04 66.8099998,31.3499998 66.77,31.55 L56.15,31.55 C56.45,34.13 57.8,35.42 60.2,35.42 C61.04,35.42 61.7399998,35.2499998 62.3,34.91 C62.8600002,34.5700002 63.44,33.9299998 64.04,32.99 L66.35,34.61 C65.0500002,37.07 62.96,38.3 60.08,38.3 C57.86,38.3 56.105,37.58 54.815,36.14 C53.525,34.7 52.88,32.8300002 52.88,30.53 C52.88,28.2299998 53.5300002,26.3500002 54.83,24.89 C56.1299998,23.4299998 57.8800002,22.7 60.08,22.7 C62.2000002,22.7 63.8549998,23.4250002 65.045,24.875 C66.2350002,26.3249998 66.83,28.2400002 66.83,30.62 Z M60.14,25.55 C57.9599998,25.55 56.66,26.6999998 56.24,29 L63.83,29 C63.5099998,26.6999998 62.2799998,25.55 60.14,25.55 Z M78.02,22.7 C76.0799998,22.7 74.5000002,23.39 73.28,24.77 L73.1,23 L70.07,23 L70.07,38 L73.4,38 L73.4,29.09 C73.4,28.13 73.7549998,27.3149998 74.465,26.645 C75.1750002,25.9750002 76.04,25.64 77.06,25.64 C78.0599998,25.64 78.8849998,25.9499998 79.535,26.57 C80.1850002,27.1900002 80.51,27.9700002 80.51,28.91 L80.51,38 L83.87,38 L83.87,28.52 C83.87,26.8000002 83.3200002,25.4 82.22,24.32 C81.1199998,23.24 79.7200002,22.7 78.02,22.7 Z M95.27,34.73 C94.85,35.21 94.3000002,35.45 93.62,35.45 C92.3200002,35.45 91.67,34.7 91.67,33.2 L91.67,25.55 L95.9,25.55 L95.9,23 L91.64,23 L91.64,17.9 L88.31,17.9 L88.31,23 L86.48,23 L86.48,25.55 L88.31,25.55 L88.31,33.2 C88.31,34.7200002 88.7800002,35.9500002 89.72,36.89 C90.6599998,37.8299998 91.9300002,38.3 93.53,38.3 C95.0699998,38.3 96.26,37.8599998 97.1,36.98 L95.27,34.73 Z M115.61,23 L117.77,23 L112.64,38 L110.45,38 L107.57,29.81 L104.81,38 L102.65,38 L97.49,23 L99.68,23 L103.85,35.63 L106.67,27.2 L105.2,23 L107.15,23 L111.44,35.69 L115.61,23 Z M125.9,22.7 C127.660009,22.7 129.094994,23.1699953 130.205,24.11 C131.315006,25.0500047 131.87,26.4099911 131.87,28.19 L131.87,38 L130.1,38 L130.01,35.54 C128.10999,37.3800092 126.12001,38.3 124.04,38.3 C122.699993,38.3 121.605004,37.8700043 120.755,37.01 C119.904996,36.1499957 119.48,35.0500067 119.48,33.71 C119.48,32.1899924 120.094994,31.0150041 121.325,30.185 C122.555006,29.3549959 124.429987,29.1899975 126.95,29.69 L129.95,30.26 L129.95,28.1 C129.95,26.8599938 129.565004,25.9350031 128.795,25.325 C128.024996,24.7149969 127.020006,24.41 125.78,24.41 C123.67999,24.41 122.200004,25.1799923 121.34,26.72 L119.96,25.52 C121.120006,23.6399906 123.099986,22.7 125.9,22.7 Z M124.46,36.53 C126.300009,36.53 128.129991,35.6000093 129.95,33.74 L129.95,31.79 L126.98,31.16 C125.079991,30.7799981 123.690004,30.8449975 122.81,31.355 C121.929996,31.8650025 121.49,32.619995 121.49,33.62 C121.49,34.4800043 121.759997,35.1799973 122.3,35.72 C122.840003,36.2600027 123.559995,36.53 124.46,36.53 Z M143.12,22.7 C144.340006,22.7 145.299996,22.9399976 146,23.42 L145.07,24.86 C144.509997,24.5999987 143.830004,24.47 143.03,24.47 C141.849994,24.47 140.815004,24.9299954 139.925,25.85 C139.034996,26.7700046 138.59,27.8999933 138.59,29.24 L138.59,38 L136.61,38 L136.61,23 L138.44,23 L138.53,25.46 C139.070003,24.6199958 139.744996,23.9500025 140.555,23.45 C141.365004,22.9499975 142.219995,22.7 143.12,22.7 Z M159.17,15.5 L161.09,15.5 L161.09,38 L159.32,38 L159.2,35.3 C157.879993,37.30001 156.060012,38.3 153.74,38.3 C151.67999,38.3 150.010006,37.5500075 148.73,36.05 C147.449994,34.5499925 146.81,32.700011 146.81,30.5 C146.81,28.2799889 147.449994,26.4250075 148.73,24.935 C150.010006,23.4449926 151.67999,22.7 153.74,22.7 C156.040011,22.7 157.849993,23.6699903 159.17,25.61 L159.17,15.5 Z M154.01,36.53 C155.310006,36.53 156.424995,36.1000043 157.355,35.24 C158.285005,34.3799957 158.889999,33.2700068 159.17,31.91 L159.17,29.09 C158.889999,27.7299932 158.285005,26.6200043 157.355,25.76 C156.424995,24.8999957 155.310006,24.47 154.01,24.47 C152.429992,24.47 151.155005,25.0449942 150.185,26.195 C149.214995,27.3450058 148.73,28.7799914 148.73,30.5 C148.73,32.2000085 149.214995,33.6299942 150.185,34.79 C151.155005,35.9500058 152.429992,36.53 154.01,36.53 Z M170.66,38.3 C169.419994,38.3 168.230006,38.0600024 167.09,37.58 C165.949994,37.0999976 165.140002,36.5000036 164.66,35.78 L165.8,34.52 C166.140002,35.1000029 166.774995,35.5949979 167.705,36.005 C168.635005,36.415002 169.589995,36.6299999 170.57,36.65 C171.630005,36.6700001 172.514996,36.4450023 173.225,35.975 C173.935004,35.5049976 174.29,34.8500042 174.29,34.01 C174.29,33.6699983 174.210001,33.3650014 174.05,33.095 C173.889999,32.8249986 173.725001,32.6050009 173.555,32.435 C173.384999,32.2649992 173.085002,32.0900009 172.655,31.91 C172.224998,31.7299991 171.905001,31.6050003 171.695,31.535 C171.484999,31.4649996 171.090003,31.3500008 170.51,31.19 C170.369999,31.1499998 170.27,31.1200001 170.21,31.1 C169.629997,30.9399992 169.165002,30.8000006 168.815,30.68 C168.464998,30.5599994 168.050002,30.3800012 167.57,30.14 C167.089998,29.8999988 166.720001,29.6450014 166.46,29.375 C166.199999,29.1049986 165.970001,28.7550022 165.77,28.325 C165.569999,27.8949978 165.47,27.4200026 165.47,26.9 C165.47,25.6199936 165.999995,24.6000038 167.06,23.84 C168.120005,23.0799962 169.349993,22.7 170.75,22.7 C171.670005,22.7 172.574996,22.8599984 173.465,23.18 C174.355004,23.5000016 175.069997,23.8999976 175.61,24.38 L174.44,25.73 C173.619996,24.8499956 172.500007,24.3800003 171.08,24.32 C170.119995,24.2799998 169.275004,24.4649979 168.545,24.875 C167.814996,25.2850021 167.45,25.8799961 167.45,26.66 C167.45,27.4800041 167.764997,28.0849981 168.395,28.475 C169.025003,28.8650019 169.959994,29.2199984 171.2,29.54 C171.880003,29.7200009 172.374998,29.8599995 172.685,29.96 C172.995002,30.0600005 173.429997,30.2349987 173.99,30.485 C174.550003,30.7350012 174.959999,30.9949986 175.22,31.265 C175.480001,31.5350014 175.719999,31.8949978 175.94,32.345 C176.160001,32.7950022 176.27,33.3099971 176.27,33.89 C176.27,35.1700064 175.735005,36.2249958 174.665,37.055 C173.594995,37.8850042 172.260008,38.3 170.66,38.3 Z" id="eventwards"></path>
        </g>
    </g>
</svg>